<svg xmlns="http://www.w3.org/2000/svg" xmlns:xlink="http://www.w3.org/1999/xlink" width="500" zoomAndPan="magnify" viewBox="0 0 375 374.999991" height="500" preserveAspectRatio="xMidYMid meet" version="1.0"><defs><g/><clipPath id="c30de2ce35"><path d="M 63.976562 206.894531 L 305.714844 206.894531 L 305.714844 234.582031 L 63.976562 234.582031 Z M 63.976562 206.894531 " clip-rule="nonzero"/></clipPath><clipPath id="1d997ee264"><path d="M 77.824219 206.894531 L 291.792969 206.894531 C 295.464844 206.894531 298.984375 208.351562 301.582031 210.949219 C 304.179688 213.546875 305.636719 217.066406 305.636719 220.738281 C 305.636719 224.410156 304.179688 227.929688 301.582031 230.527344 C 298.984375 233.125 295.464844 234.582031 291.792969 234.582031 L 77.824219 234.582031 C 74.152344 234.582031 70.628906 233.125 68.03125 230.527344 C 65.4375 227.929688 63.976562 224.410156 63.976562 220.738281 C 63.976562 217.066406 65.4375 213.546875 68.03125 210.949219 C 70.628906 208.351562 74.152344 206.894531 77.824219 206.894531 Z M 77.824219 206.894531 " clip-rule="nonzero"/></clipPath></defs><rect x="-37.5" width="450" fill="#ffffff" y="-37.499999" height="449.999989" fill-opacity="1"/><rect x="-37.5" width="450" fill="#ffffff" y="-37.499999" height="449.999989" fill-opacity="1"/><path stroke-linecap="butt" transform="matrix(0.796661, 0, 0, 0.796661, 96.637455, -0.962274)" fill="none" stroke-linejoin="miter" d="M 197.503164 124.26058 C 195.703661 126.560218 193.506992 128.80592 190.913157 131.002589 C 188.716488 132.895255 185.995168 134.895793 182.7541 136.989493 C 179.508129 139.088096 175.742411 140.980762 171.447138 142.6822 C 172.844573 140.882697 172.972058 138.960611 171.824691 136.915944 C 170.67242 134.866373 168.152135 132.998224 164.258931 131.301689 C 160.365727 129.605154 155.099605 128.20772 148.465468 127.109385 C 141.826428 126.011051 133.716404 125.461883 124.130494 125.461883 C 118.540755 125.461883 112.524432 126.035567 106.086426 127.182934 C 99.64842 128.330302 93.283964 130.30142 86.99796 133.096289 C 80.707052 135.891158 74.641696 139.607844 68.80189 144.251249 C 62.962085 148.894655 57.798932 154.685428 53.307528 161.623568 C 48.816124 168.561708 45.246537 176.794314 42.598766 186.326289 C 39.955899 195.863167 38.632013 206.866126 38.632013 219.344971 C 38.632013 231.823817 40.15203 242.802259 43.196966 252.285201 C 46.241903 261.768143 50.287108 269.932103 55.327679 276.767275 C 60.36825 283.607349 66.134506 289.295153 72.621545 293.840493 C 79.108583 298.38093 85.747624 302.024066 92.538665 304.769902 C 99.324804 307.515739 105.98836 309.437824 112.524432 310.536159 C 119.065406 311.634493 124.978761 312.183661 130.269399 312.183661 C 136.359272 312.080692 142.699212 311.634493 149.289219 310.835259 C 154.977023 310.13409 161.243414 309.114208 168.078585 307.765806 C 174.91866 306.417404 181.631249 304.446286 188.216353 301.847548 C 178.53728 309.633955 169.549569 315.57673 161.267931 319.666065 C 152.981389 323.760303 145.695116 326.805239 139.404208 328.800874 C 132.117935 331.095609 125.429863 332.394978 119.33999 332.694078 C 104.566409 332.694078 90.641096 330.521925 77.56405 326.182523 C 64.487005 321.838218 53.032944 315.552214 43.196966 307.314704 C 33.365891 299.077195 25.604 288.971537 19.916196 276.992825 C 14.223489 265.014114 11.379587 251.387901 11.379587 236.114186 C 11.379587 226.631244 12.276887 217.824955 14.076391 209.685511 C 15.870991 201.550971 18.244178 194.08818 21.186146 187.302041 C 24.133016 180.511 27.452536 174.39661 31.144706 168.958874 C 34.836875 163.516234 38.607497 158.72573 42.451668 154.582459 C 46.295839 150.439188 50.037041 146.972569 53.680177 144.1777 C 57.323314 141.382831 60.495735 139.235195 63.187636 137.739695 C 65.786374 136.239291 69.10099 134.542757 73.146196 132.645187 C 77.191401 130.752522 81.628869 128.830436 86.473309 126.883834 C 91.312845 124.937232 96.431869 123.015147 101.820573 121.117578 C 107.209277 119.220009 112.70095 117.523474 118.290688 116.027974 C 123.880426 114.527571 129.347583 113.33117 134.687254 112.43387 C 140.026925 111.53657 145.096916 111.085469 149.887419 111.085469 C 160.566762 111.085469 169.201436 111.585603 175.791444 112.580969 C 182.376548 113.581238 187.392602 114.802154 190.839608 116.253525 C 194.28171 117.699992 196.429346 119.170976 197.277613 120.666476 C 198.125881 122.16688 198.19943 123.36328 197.503164 124.26058 Z M 197.503164 124.26058 " stroke="#ffffff" stroke-width="23.000025" stroke-opacity="1" stroke-miterlimit="4"/><g fill="#000000" fill-opacity="1"><g transform="translate(96.637455, 261.935765)"><g><path d="M 157.34375 -163.890625 C 155.90625 -162.066406 154.15625 -160.28125 152.09375 -158.53125 C 150.34375 -157.019531 148.175781 -155.425781 145.59375 -153.75 C 143.007812 -152.082031 140.003906 -150.570312 136.578125 -149.21875 C 137.691406 -150.65625 137.789062 -152.1875 136.875 -153.8125 C 135.96875 -155.445312 133.960938 -156.9375 130.859375 -158.28125 C 127.753906 -159.632812 123.554688 -160.75 118.265625 -161.625 C 112.984375 -162.5 106.523438 -162.9375 98.890625 -162.9375 C 94.429688 -162.9375 89.632812 -162.476562 84.5 -161.5625 C 79.375 -160.65625 74.304688 -159.085938 69.296875 -156.859375 C 64.296875 -154.628906 59.46875 -151.664062 54.8125 -147.96875 C 50.15625 -144.269531 46.035156 -139.65625 42.453125 -134.125 C 38.878906 -128.601562 36.039062 -122.046875 33.9375 -114.453125 C 31.832031 -106.859375 30.78125 -98.09375 30.78125 -88.15625 C 30.78125 -78.207031 31.988281 -69.457031 34.40625 -61.90625 C 36.832031 -54.351562 40.050781 -47.851562 44.0625 -42.40625 C 48.082031 -36.957031 52.675781 -32.421875 57.84375 -28.796875 C 63.019531 -25.179688 68.3125 -22.28125 73.71875 -20.09375 C 79.125 -17.90625 84.429688 -16.375 89.640625 -15.5 C 94.847656 -14.625 99.5625 -14.1875 103.78125 -14.1875 C 108.632812 -14.269531 113.679688 -14.628906 118.921875 -15.265625 C 123.460938 -15.828125 128.453125 -16.644531 133.890625 -17.71875 C 139.335938 -18.789062 144.6875 -20.359375 149.9375 -22.421875 C 142.226562 -16.222656 135.070312 -11.492188 128.46875 -8.234375 C 121.863281 -4.972656 116.0625 -2.546875 111.0625 -0.953125 C 105.25 0.878906 99.921875 1.910156 95.078125 2.140625 C 83.304688 2.140625 72.207031 0.410156 61.78125 -3.046875 C 51.363281 -6.503906 42.238281 -11.507812 34.40625 -18.0625 C 26.582031 -24.625 20.398438 -32.675781 15.859375 -42.21875 C 11.328125 -51.769531 9.0625 -62.628906 9.0625 -74.796875 C 9.0625 -82.347656 9.773438 -89.363281 11.203125 -95.84375 C 12.640625 -102.320312 14.53125 -108.265625 16.875 -113.671875 C 19.21875 -119.085938 21.859375 -123.960938 24.796875 -128.296875 C 27.742188 -132.628906 30.75 -136.441406 33.8125 -139.734375 C 36.875 -143.035156 39.859375 -145.800781 42.765625 -148.03125 C 45.671875 -150.257812 48.195312 -151.96875 50.34375 -153.15625 C 52.40625 -154.351562 55.046875 -155.707031 58.265625 -157.21875 C 61.492188 -158.726562 65.035156 -160.257812 68.890625 -161.8125 C 72.742188 -163.363281 76.816406 -164.894531 81.109375 -166.40625 C 85.410156 -167.914062 89.785156 -169.265625 94.234375 -170.453125 C 98.691406 -171.648438 103.046875 -172.601562 107.296875 -173.3125 C 111.546875 -174.03125 115.582031 -174.390625 119.40625 -174.390625 C 127.914062 -174.390625 134.796875 -173.992188 140.046875 -173.203125 C 145.296875 -172.410156 149.289062 -171.4375 152.03125 -170.28125 C 154.769531 -169.125 156.476562 -167.945312 157.15625 -166.75 C 157.832031 -165.5625 157.894531 -164.609375 157.34375 -163.890625 Z M 157.34375 -163.890625 "/></g></g></g><path stroke-linecap="butt" transform="matrix(0.638842, 0, 0, 0.638842, 150.087489, 97.059054)" fill="none" stroke-linejoin="miter" d="M 197.504448 124.259667 C 195.706764 126.558747 193.511631 128.802796 190.912937 130.997928 C 188.717805 132.899561 185.996819 134.892912 182.756094 136.990212 C 179.509255 139.087511 175.742677 140.983029 171.450246 142.682881 C 172.844369 140.885196 172.972775 138.959105 171.823235 136.916837 C 170.673695 134.868454 168.15449 132.997394 164.259506 131.297543 C 160.370636 129.603805 155.099873 128.203568 148.465559 127.109059 C 141.825131 126.008435 133.717205 125.458124 124.129552 125.458124 C 118.540831 125.458124 112.524089 126.032894 106.085442 127.182434 C 99.646795 128.331974 93.287637 130.300867 86.99574 133.095227 C 80.709957 135.889588 74.644299 139.60725 68.80488 144.254326 C 62.965462 148.895288 57.798646 154.685791 53.304433 161.619718 C 48.816336 168.559761 45.245424 176.796093 42.597813 186.328715 C 39.956317 195.861337 38.629454 206.867571 38.629454 219.347418 C 38.629454 231.82115 40.151983 242.802927 43.197042 252.286632 C 46.2421 261.770337 50.283834 269.933295 55.328358 276.769389 C 60.366767 283.605484 66.132811 289.298153 72.620375 293.841282 C 79.107939 298.378296 85.748367 302.022583 92.535545 304.768027 C 99.322723 307.513471 105.987609 309.433447 112.524089 310.53407 C 119.066684 311.634694 124.979478 312.178891 130.268585 312.178891 C 134.261402 312.178891 138.553834 311.983225 143.145879 311.579663 C 147.040864 311.280049 151.486159 310.784768 156.475652 310.087707 C 161.465145 309.38453 166.656419 308.338938 172.049474 306.938701 C 173.443597 305.44063 174.54422 303.869184 175.339115 302.224363 C 176.140124 300.579543 176.788269 299.057014 177.289665 297.656776 C 177.784945 296.060872 178.188507 294.464968 178.488121 292.86295 C 179.087349 282.58435 179.331932 272.403583 179.234099 262.320649 C 179.136266 252.237715 179.087349 242.105865 179.087349 231.925098 C 176.286874 231.625484 173.296847 231.32587 170.098925 231.026256 C 166.907117 230.726642 163.764225 230.573777 160.664136 230.573777 C 158.169389 230.573777 155.900882 230.677725 153.8525 230.873391 C 151.810232 231.075172 149.988089 231.521536 148.38607 232.224712 C 154.078739 228.727176 158.921482 226.00619 162.914299 224.061755 C 166.907117 222.11732 170.202872 220.594791 172.795452 219.494168 C 175.791594 218.295711 178.28634 217.500817 180.279692 217.097255 C 182.480938 216.79764 185.201924 216.546943 188.442649 216.351276 C 191.689488 216.149496 195.03416 215.978287 198.476666 215.825423 C 201.919171 215.678673 205.31276 215.476892 208.657433 215.226195 C 212.002105 214.975497 214.918757 214.602508 217.419618 214.101113 L 206.933123 221.438603 C 206.737456 231.82115 206.511217 240.485503 206.260519 247.419431 C 206.009822 254.359473 205.789697 259.923736 205.587916 264.118334 C 205.288302 269.009994 205.037604 272.898863 204.841938 275.797172 C 204.73799 279.086813 204.16322 282.235819 203.117628 285.225846 C 202.072036 288.221987 200.421101 291.144754 198.177052 293.988031 C 195.933003 296.831309 192.985778 299.656242 189.341491 302.450603 C 185.697205 305.244963 181.282482 308.088241 176.091208 310.980434 C 168.001626 316.373489 160.517386 320.519171 153.632375 323.411365 C 146.741249 326.303559 140.755081 328.449774 135.66164 329.850012 C 129.669357 331.445916 124.2335 332.393675 119.34184 332.693289 C 104.562913 332.693289 90.640027 330.522615 77.560951 326.181267 C 64.487991 321.839919 53.029278 315.548022 43.197042 307.317804 C 33.364805 299.081472 25.60541 288.97408 19.912741 276.995628 C 14.226187 265.017176 11.382909 251.387789 11.382909 236.113582 C 11.382909 226.629877 12.275637 217.824889 14.073322 209.68639 C 15.871007 201.554006 18.243462 194.08811 21.190687 187.300932 C 24.131798 180.513754 27.452012 174.39918 31.145215 168.957208 C 34.838418 163.515237 38.604996 158.727525 42.451063 154.581843 C 46.291016 150.442276 50.039251 146.975312 53.677423 144.174837 C 57.321709 141.380476 60.495173 139.23426 63.191701 137.73619 C 65.78428 136.244233 69.104494 134.544382 73.146228 132.648864 C 77.187962 130.753345 81.633258 128.827254 86.469887 126.88282 C 91.31263 124.938385 96.430529 123.012294 101.823584 121.116776 C 107.210524 119.221257 112.701412 117.521406 118.290133 116.02945 C 123.878855 114.531379 129.345284 113.332922 134.689423 112.43408 C 140.027446 111.535237 145.096429 111.082759 149.884141 111.082759 C 160.566303 111.082759 169.200082 111.584154 175.791594 112.580829 C 182.376991 113.58362 187.397057 114.806535 190.839562 116.249574 C 194.282068 117.698728 196.428283 119.172341 197.278209 120.670412 C 198.128135 122.168483 198.20151 123.360825 197.504448 124.259667 Z M 197.504448 124.259667 " stroke="#ffffff" stroke-width="23.000025" stroke-opacity="1" stroke-miterlimit="4"/><g fill="#000000" fill-opacity="1"><g transform="translate(150.087489, 307.877069)"><g><path d="M 126.171875 -131.4375 C 125.023438 -129.96875 123.625 -128.53125 121.96875 -127.125 C 120.5625 -125.914062 118.820312 -124.640625 116.75 -123.296875 C 114.675781 -121.960938 112.269531 -120.753906 109.53125 -119.671875 C 110.414062 -120.816406 110.492188 -122.039062 109.765625 -123.34375 C 109.035156 -124.65625 107.425781 -125.851562 104.9375 -126.9375 C 102.445312 -128.019531 99.082031 -128.910156 94.84375 -129.609375 C 90.601562 -130.316406 85.421875 -130.671875 79.296875 -130.671875 C 75.722656 -130.671875 71.878906 -130.300781 67.765625 -129.5625 C 63.660156 -128.832031 59.597656 -127.570312 55.578125 -125.78125 C 51.554688 -124 47.679688 -121.625 43.953125 -118.65625 C 40.222656 -115.695312 36.921875 -112 34.046875 -107.5625 C 31.179688 -103.132812 28.898438 -97.875 27.203125 -91.78125 C 25.515625 -85.6875 24.671875 -78.65625 24.671875 -70.6875 C 24.671875 -62.71875 25.644531 -55.703125 27.59375 -49.640625 C 29.539062 -43.585938 32.125 -38.375 35.34375 -34 C 38.5625 -29.632812 42.242188 -26 46.390625 -23.09375 C 50.535156 -20.195312 54.773438 -17.867188 59.109375 -16.109375 C 63.453125 -14.359375 67.710938 -13.132812 71.890625 -12.4375 C 76.066406 -11.738281 79.84375 -11.390625 83.21875 -11.390625 C 85.769531 -11.390625 88.515625 -11.515625 91.453125 -11.765625 C 93.929688 -11.953125 96.765625 -12.269531 99.953125 -12.71875 C 103.148438 -13.164062 106.46875 -13.835938 109.90625 -14.734375 C 110.800781 -15.691406 111.503906 -16.695312 112.015625 -17.75 C 112.523438 -18.800781 112.941406 -19.769531 113.265625 -20.65625 C 113.578125 -21.675781 113.832031 -22.695312 114.03125 -23.71875 C 114.40625 -30.289062 114.5625 -36.796875 114.5 -43.234375 C 114.4375 -49.679688 114.40625 -56.15625 114.40625 -62.65625 C 112.625 -62.84375 110.710938 -63.03125 108.671875 -63.21875 C 106.628906 -63.414062 104.617188 -63.515625 102.640625 -63.515625 C 101.046875 -63.515625 99.59375 -63.453125 98.28125 -63.328125 C 96.976562 -63.203125 95.816406 -62.914062 94.796875 -62.46875 C 98.429688 -64.695312 101.523438 -66.429688 104.078125 -67.671875 C 106.628906 -68.921875 108.734375 -69.894531 110.390625 -70.59375 C 112.304688 -71.363281 113.898438 -71.875 115.171875 -72.125 C 116.578125 -72.3125 118.316406 -72.46875 120.390625 -72.59375 C 122.460938 -72.726562 124.597656 -72.84375 126.796875 -72.9375 C 128.992188 -73.03125 131.160156 -73.15625 133.296875 -73.3125 C 135.429688 -73.476562 137.296875 -73.71875 138.890625 -74.03125 L 132.203125 -69.359375 C 132.066406 -62.722656 131.921875 -57.1875 131.765625 -52.75 C 131.609375 -48.320312 131.46875 -44.769531 131.34375 -42.09375 C 131.144531 -38.96875 130.984375 -36.476562 130.859375 -34.625 C 130.796875 -32.519531 130.425781 -30.507812 129.75 -28.59375 C 129.082031 -26.6875 128.03125 -24.820312 126.59375 -23 C 125.164062 -21.1875 123.285156 -19.382812 120.953125 -17.59375 C 118.628906 -15.8125 115.8125 -14 112.5 -12.15625 C 107.332031 -8.707031 102.546875 -6.054688 98.140625 -4.203125 C 93.742188 -2.359375 89.921875 -0.988281 86.671875 -0.09375 C 82.835938 0.925781 79.359375 1.53125 76.234375 1.71875 C 66.796875 1.71875 57.898438 0.332031 49.546875 -2.4375 C 41.191406 -5.207031 33.875 -9.222656 27.59375 -14.484375 C 21.3125 -19.753906 16.351562 -26.210938 12.71875 -33.859375 C 9.082031 -41.515625 7.265625 -50.222656 7.265625 -59.984375 C 7.265625 -66.035156 7.835938 -71.660156 8.984375 -76.859375 C 10.140625 -82.054688 11.65625 -86.820312 13.53125 -91.15625 C 15.414062 -95.5 17.535156 -99.40625 19.890625 -102.875 C 22.253906 -106.351562 24.660156 -109.414062 27.109375 -112.0625 C 29.566406 -114.707031 31.957031 -116.921875 34.28125 -118.703125 C 36.613281 -120.492188 38.644531 -121.867188 40.375 -122.828125 C 42.03125 -123.785156 44.148438 -124.867188 46.734375 -126.078125 C 49.316406 -127.285156 52.148438 -128.507812 55.234375 -129.75 C 58.328125 -131 61.597656 -132.226562 65.046875 -133.4375 C 68.492188 -134.65625 72 -135.738281 75.5625 -136.6875 C 79.132812 -137.644531 82.625 -138.410156 86.03125 -138.984375 C 89.445312 -139.554688 92.6875 -139.84375 95.75 -139.84375 C 102.570312 -139.84375 108.085938 -139.523438 112.296875 -138.890625 C 116.503906 -138.253906 119.707031 -137.472656 121.90625 -136.546875 C 124.113281 -135.617188 125.488281 -134.675781 126.03125 -133.71875 C 126.570312 -132.769531 126.617188 -132.007812 126.171875 -131.4375 Z M 126.171875 -131.4375 "/></g></g></g><g clip-path="url(#c30de2ce35)"><g clip-path="url(#1d997ee264)"><path fill="#ffffff" d="M 63.976562 206.894531 L 305.605469 206.894531 L 305.605469 234.582031 L 63.976562 234.582031 Z M 63.976562 206.894531 " fill-opacity="1" fill-rule="nonzero"/></g></g><g fill="#000000" fill-opacity="1"><g transform="translate(102.117181, 227.709646)"><g><path d="M 14.078125 -14.671875 C 13.953125 -14.503906 13.796875 -14.34375 13.609375 -14.1875 C 13.453125 -14.050781 13.257812 -13.90625 13.03125 -13.75 C 12.800781 -13.601562 12.53125 -13.472656 12.21875 -13.359375 C 12.320312 -13.484375 12.332031 -13.617188 12.25 -13.765625 C 12.164062 -13.910156 11.984375 -14.039062 11.703125 -14.15625 C 11.429688 -14.28125 11.054688 -14.378906 10.578125 -14.453125 C 10.109375 -14.535156 9.53125 -14.578125 8.84375 -14.578125 C 8.445312 -14.578125 8.019531 -14.535156 7.5625 -14.453125 C 7.101562 -14.367188 6.648438 -14.226562 6.203125 -14.03125 C 5.753906 -13.832031 5.320312 -13.566406 4.90625 -13.234375 C 4.488281 -12.910156 4.117188 -12.5 3.796875 -12 C 3.472656 -11.507812 3.21875 -10.921875 3.03125 -10.234375 C 2.84375 -9.554688 2.75 -8.773438 2.75 -7.890625 C 2.75 -6.992188 2.859375 -6.207031 3.078125 -5.53125 C 3.296875 -4.863281 3.582031 -4.285156 3.9375 -3.796875 C 4.300781 -3.304688 4.710938 -2.898438 5.171875 -2.578125 C 5.640625 -2.253906 6.113281 -1.992188 6.59375 -1.796875 C 7.082031 -1.597656 7.554688 -1.457031 8.015625 -1.375 C 8.484375 -1.300781 8.90625 -1.265625 9.28125 -1.265625 C 9.71875 -1.273438 10.171875 -1.304688 10.640625 -1.359375 C 11.046875 -1.410156 11.492188 -1.484375 11.984375 -1.578125 C 12.472656 -1.679688 12.953125 -1.820312 13.421875 -2 C 12.722656 -1.445312 12.078125 -1.023438 11.484375 -0.734375 C 10.898438 -0.441406 10.382812 -0.222656 9.9375 -0.078125 C 9.414062 0.078125 8.9375 0.164062 8.5 0.1875 C 7.445312 0.1875 6.453125 0.0351562 5.515625 -0.265625 C 4.585938 -0.578125 3.773438 -1.023438 3.078125 -1.609375 C 2.378906 -2.203125 1.828125 -2.925781 1.421875 -3.78125 C 1.015625 -4.632812 0.8125 -5.601562 0.8125 -6.6875 C 0.8125 -7.363281 0.875 -7.992188 1 -8.578125 C 1.132812 -9.160156 1.304688 -9.691406 1.515625 -10.171875 C 1.722656 -10.648438 1.957031 -11.082031 2.21875 -11.46875 C 2.476562 -11.863281 2.742188 -12.207031 3.015625 -12.5 C 3.296875 -12.800781 3.566406 -13.050781 3.828125 -13.25 C 4.085938 -13.445312 4.3125 -13.597656 4.5 -13.703125 C 4.6875 -13.804688 4.921875 -13.925781 5.203125 -14.0625 C 5.492188 -14.195312 5.8125 -14.332031 6.15625 -14.46875 C 6.507812 -14.613281 6.875 -14.753906 7.25 -14.890625 C 7.632812 -15.023438 8.023438 -15.144531 8.421875 -15.25 C 8.828125 -15.351562 9.21875 -15.4375 9.59375 -15.5 C 9.976562 -15.570312 10.34375 -15.609375 10.6875 -15.609375 C 11.445312 -15.609375 12.0625 -15.570312 12.53125 -15.5 C 13 -15.425781 13.351562 -15.335938 13.59375 -15.234375 C 13.84375 -15.128906 14 -15.023438 14.0625 -14.921875 C 14.125 -14.816406 14.128906 -14.734375 14.078125 -14.671875 Z M 14.078125 -14.671875 "/></g></g></g><g fill="#000000" fill-opacity="1"><g transform="translate(117.986684, 227.709646)"><g><path d="M 4.265625 -1.109375 C 3.878906 -0.898438 3.515625 -0.722656 3.171875 -0.578125 C 2.828125 -0.429688 2.503906 -0.316406 2.203125 -0.234375 C 1.910156 -0.148438 1.644531 -0.0859375 1.40625 -0.046875 C 1.164062 -0.015625 0.960938 0 0.796875 0 L -0.8125 0 L 0.359375 -0.65625 C 0.472656 -0.8125 0.585938 -0.96875 0.703125 -1.125 C 0.816406 -1.28125 0.914062 -1.425781 1 -1.5625 C 1.082031 -1.707031 1.164062 -1.851562 1.25 -2 C 1.46875 -2.445312 1.796875 -3.175781 2.234375 -4.1875 C 2.410156 -4.613281 2.617188 -5.117188 2.859375 -5.703125 C 3.109375 -6.296875 3.390625 -6.984375 3.703125 -7.765625 C 4.023438 -8.546875 4.382812 -9.4375 4.78125 -10.4375 C 5.175781 -11.4375 5.613281 -12.554688 6.09375 -13.796875 L 7.953125 -15.5 L 12.140625 -1.3125 C 12.429688 -1.238281 12.710938 -1.1875 12.984375 -1.15625 C 13.265625 -1.132812 13.523438 -1.125 13.765625 -1.125 C 13.898438 -1.125 14.019531 -1.125 14.125 -1.125 C 14.226562 -1.132812 14.320312 -1.144531 14.40625 -1.15625 C 14.488281 -1.15625 14.566406 -1.164062 14.640625 -1.1875 C 14.234375 -0.988281 13.875 -0.816406 13.5625 -0.671875 C 13.257812 -0.523438 12.988281 -0.398438 12.75 -0.296875 C 12.507812 -0.203125 12.285156 -0.128906 12.078125 -0.078125 C 11.878906 -0.0234375 11.675781 0 11.46875 0 L 9.765625 0 L 10.328125 -0.359375 L 8.609375 -6.015625 C 8.398438 -5.953125 8.160156 -5.894531 7.890625 -5.84375 C 7.628906 -5.789062 7.3125 -5.742188 6.9375 -5.703125 C 6.5625 -5.660156 6.125 -5.617188 5.625 -5.578125 C 5.132812 -5.546875 4.566406 -5.515625 3.921875 -5.484375 C 3.617188 -4.847656 3.34375 -4.285156 3.09375 -3.796875 C 2.84375 -3.304688 2.617188 -2.878906 2.421875 -2.515625 C 2.222656 -2.148438 2.046875 -1.84375 1.890625 -1.59375 C 1.742188 -1.351562 1.613281 -1.15625 1.5 -1 C 1.625 -0.976562 1.757812 -0.960938 1.90625 -0.953125 C 2.0625 -0.941406 2.210938 -0.9375 2.359375 -0.9375 C 2.585938 -0.9375 2.8125 -0.945312 3.03125 -0.96875 C 3.257812 -0.988281 3.46875 -1.007812 3.65625 -1.03125 C 3.863281 -1.050781 4.066406 -1.078125 4.265625 -1.109375 Z M 5.75 -6.75 C 6.707031 -6.75 7.582031 -6.773438 8.375 -6.828125 L 6.734375 -12.25 C 6.296875 -11.113281 5.890625 -10.097656 5.515625 -9.203125 C 5.148438 -8.316406 4.804688 -7.5 4.484375 -6.75 Z M 5.75 -6.75 "/></g></g></g><g fill="#000000" fill-opacity="1"><g transform="translate(133.599987, 227.709646)"><g><path d="M 11.390625 -11.453125 C 11.328125 -10.921875 11.179688 -10.453125 10.953125 -10.046875 C 10.734375 -9.648438 10.460938 -9.296875 10.140625 -8.984375 C 9.816406 -8.679688 9.472656 -8.421875 9.109375 -8.203125 C 8.742188 -7.992188 8.394531 -7.816406 8.0625 -7.671875 C 8.695312 -6.992188 9.265625 -6.390625 9.765625 -5.859375 C 10.265625 -5.335938 10.707031 -4.875 11.09375 -4.46875 C 11.488281 -4.0625 11.828125 -3.710938 12.109375 -3.421875 C 12.398438 -3.128906 12.648438 -2.878906 12.859375 -2.671875 C 13.347656 -2.203125 13.6875 -1.890625 13.875 -1.734375 C 14.070312 -1.578125 14.285156 -1.46875 14.515625 -1.40625 C 14.753906 -1.34375 14.984375 -1.3125 15.203125 -1.3125 C 15.390625 -1.3125 15.566406 -1.328125 15.734375 -1.359375 C 15.910156 -1.398438 16.050781 -1.441406 16.15625 -1.484375 C 15.8125 -1.253906 15.507812 -1.046875 15.25 -0.859375 C 14.988281 -0.679688 14.75 -0.523438 14.53125 -0.390625 C 14.3125 -0.253906 14.101562 -0.148438 13.90625 -0.078125 C 13.71875 -0.015625 13.519531 0.015625 13.3125 0.015625 C 13.164062 0.015625 13.023438 -0.00390625 12.890625 -0.046875 C 12.753906 -0.0859375 12.609375 -0.15625 12.453125 -0.25 C 12.296875 -0.34375 12.128906 -0.457031 11.953125 -0.59375 C 11.785156 -0.738281 11.597656 -0.910156 11.390625 -1.109375 C 11.253906 -1.242188 11.050781 -1.460938 10.78125 -1.765625 C 10.507812 -2.066406 10.207031 -2.40625 9.875 -2.78125 C 9.539062 -3.15625 9.191406 -3.546875 8.828125 -3.953125 C 8.460938 -4.359375 8.117188 -4.734375 7.796875 -5.078125 C 7.484375 -5.421875 7.203125 -5.71875 6.953125 -5.96875 C 6.703125 -6.21875 6.535156 -6.367188 6.453125 -6.421875 C 6.335938 -6.484375 6.222656 -6.539062 6.109375 -6.59375 C 6.003906 -6.632812 5.882812 -6.671875 5.75 -6.703125 C 5.625 -6.734375 5.5 -6.742188 5.375 -6.734375 L 6.921875 -7.796875 C 7.273438 -7.796875 7.613281 -7.878906 7.9375 -8.046875 C 8.269531 -8.210938 8.550781 -8.453125 8.78125 -8.765625 C 9.019531 -9.085938 9.207031 -9.472656 9.34375 -9.921875 C 9.476562 -10.378906 9.535156 -10.894531 9.515625 -11.46875 C 9.492188 -11.8125 9.414062 -12.125 9.28125 -12.40625 C 9.144531 -12.6875 8.96875 -12.9375 8.75 -13.15625 C 8.53125 -13.375 8.28125 -13.566406 8 -13.734375 C 7.726562 -13.898438 7.445312 -14.035156 7.15625 -14.140625 C 6.863281 -14.253906 6.570312 -14.335938 6.28125 -14.390625 C 5.988281 -14.441406 5.722656 -14.46875 5.484375 -14.46875 C 5.316406 -14.46875 5.140625 -14.460938 4.953125 -14.453125 C 4.765625 -14.453125 4.570312 -14.453125 4.375 -14.453125 C 4.351562 -13.117188 4.328125 -11.925781 4.296875 -10.875 C 4.273438 -9.832031 4.253906 -8.90625 4.234375 -8.09375 C 4.210938 -7.289062 4.191406 -6.59375 4.171875 -6 C 4.160156 -5.414062 4.144531 -4.914062 4.125 -4.5 C 4.082031 -3.53125 4.039062 -2.878906 4 -2.546875 C 3.976562 -2.398438 3.941406 -2.253906 3.890625 -2.109375 C 3.847656 -1.972656 3.789062 -1.832031 3.71875 -1.6875 C 3.644531 -1.539062 3.550781 -1.394531 3.4375 -1.25 C 3.738281 -1.21875 4.007812 -1.195312 4.25 -1.1875 C 4.5 -1.1875 4.726562 -1.1875 4.9375 -1.1875 C 5.425781 -1.1875 5.785156 -1.195312 6.015625 -1.21875 C 6.253906 -1.25 6.390625 -1.273438 6.421875 -1.296875 C 6.054688 -1.109375 5.707031 -0.9375 5.375 -0.78125 C 5.050781 -0.625 4.738281 -0.484375 4.4375 -0.359375 C 4.132812 -0.242188 3.847656 -0.148438 3.578125 -0.078125 C 3.304688 -0.015625 3.039062 0.015625 2.78125 0.015625 L 0.921875 0.015625 L 1.859375 -0.609375 C 1.910156 -0.796875 1.957031 -1.015625 2 -1.265625 C 2.050781 -1.523438 2.09375 -1.800781 2.125 -2.09375 C 2.15625 -2.394531 2.179688 -2.703125 2.203125 -3.015625 C 2.234375 -3.328125 2.257812 -3.640625 2.28125 -3.953125 C 2.320312 -4.648438 2.351562 -5.394531 2.375 -6.1875 C 2.394531 -7.28125 2.410156 -8.332031 2.421875 -9.34375 C 2.429688 -9.78125 2.4375 -10.226562 2.4375 -10.6875 C 2.445312 -11.144531 2.453125 -11.59375 2.453125 -12.03125 C 2.460938 -12.46875 2.46875 -12.882812 2.46875 -13.28125 C 2.476562 -13.675781 2.484375 -14.023438 2.484375 -14.328125 L 0.5625 -14.1875 L 2.640625 -15.4375 C 2.765625 -15.414062 2.898438 -15.398438 3.046875 -15.390625 C 3.191406 -15.390625 3.34375 -15.390625 3.5 -15.390625 C 3.800781 -15.390625 4.101562 -15.398438 4.40625 -15.421875 C 4.707031 -15.453125 5.003906 -15.484375 5.296875 -15.515625 C 5.597656 -15.546875 5.890625 -15.570312 6.171875 -15.59375 C 6.453125 -15.625 6.738281 -15.640625 7.03125 -15.640625 C 7.601562 -15.640625 8.160156 -15.546875 8.703125 -15.359375 C 9.253906 -15.171875 9.738281 -14.894531 10.15625 -14.53125 C 10.570312 -14.164062 10.894531 -13.722656 11.125 -13.203125 C 11.363281 -12.679688 11.453125 -12.097656 11.390625 -11.453125 Z M 16.1875 -1.5 C 16.164062 -1.5 16.15625 -1.5 16.15625 -1.5 L 16.15625 -1.484375 L 16.15625 -1.5 C 16.164062 -1.5 16.175781 -1.5 16.1875 -1.5 Z M 16.1875 -1.5 "/></g></g></g><g fill="#000000" fill-opacity="1"><g transform="translate(149.971212, 227.709646)"><g><path d="M 9.375 -8.375 C 9.3125 -8.34375 9.21875 -8.285156 9.09375 -8.203125 C 8.976562 -8.128906 8.816406 -8.023438 8.609375 -7.890625 C 8.398438 -7.753906 8.125 -7.566406 7.78125 -7.328125 C 7.832031 -7.429688 7.828125 -7.507812 7.765625 -7.5625 C 7.710938 -7.625 7.632812 -7.664062 7.53125 -7.6875 C 7.414062 -7.71875 7.273438 -7.726562 7.109375 -7.71875 C 6.847656 -7.695312 6.476562 -7.671875 6 -7.640625 C 5.519531 -7.609375 4.976562 -7.582031 4.375 -7.5625 C 4.375 -6.425781 4.363281 -5.5 4.34375 -4.78125 C 4.332031 -4.070312 4.328125 -3.515625 4.328125 -3.109375 C 4.304688 -2.640625 4.289062 -2.296875 4.28125 -2.078125 C 4.269531 -1.941406 4.226562 -1.804688 4.15625 -1.671875 C 4.09375 -1.546875 4 -1.414062 3.875 -1.28125 C 3.75 -1.144531 3.578125 -1.023438 3.359375 -0.921875 L 8.203125 -0.921875 C 8.421875 -0.921875 8.648438 -0.929688 8.890625 -0.953125 C 9.085938 -0.984375 9.300781 -1.019531 9.53125 -1.0625 C 9.757812 -1.113281 9.976562 -1.191406 10.1875 -1.296875 C 9.832031 -0.960938 9.476562 -0.703125 9.125 -0.515625 C 8.78125 -0.335938 8.460938 -0.210938 8.171875 -0.140625 C 7.828125 -0.046875 7.5 0.00390625 7.1875 0.015625 C 6.488281 0.015625 5.832031 0.0195312 5.21875 0.03125 C 4.601562 0.0390625 4.046875 0.0546875 3.546875 0.078125 C 3.046875 0.0976562 2.617188 0.125 2.265625 0.15625 C 1.910156 0.1875 1.65625 0.222656 1.5 0.265625 C 1.71875 0.046875 1.890625 -0.164062 2.015625 -0.375 C 2.140625 -0.59375 2.234375 -0.832031 2.296875 -1.09375 C 2.367188 -1.363281 2.410156 -1.660156 2.421875 -1.984375 C 2.441406 -2.316406 2.445312 -2.710938 2.4375 -3.171875 L 2.4375 -7.546875 C 2.238281 -7.546875 2.039062 -7.546875 1.84375 -7.546875 C 1.644531 -7.554688 1.453125 -7.570312 1.265625 -7.59375 L 2.4375 -8.203125 C 2.4375 -8.585938 2.4375 -8.988281 2.4375 -9.40625 C 2.4375 -9.832031 2.4375 -10.285156 2.4375 -10.765625 C 2.4375 -11.253906 2.429688 -11.773438 2.421875 -12.328125 C 2.421875 -12.890625 2.421875 -13.5 2.421875 -14.15625 C 2.097656 -14.15625 1.796875 -14.160156 1.515625 -14.171875 C 1.234375 -14.179688 0.96875 -14.191406 0.71875 -14.203125 L 2.71875 -15.265625 C 4.0625 -15.265625 5.210938 -15.269531 6.171875 -15.28125 C 7.128906 -15.300781 7.921875 -15.320312 8.546875 -15.34375 C 9.273438 -15.375 9.878906 -15.40625 10.359375 -15.4375 C 10.609375 -15.4375 10.769531 -15.414062 10.84375 -15.375 C 10.925781 -15.332031 10.957031 -15.285156 10.9375 -15.234375 C 10.925781 -15.191406 10.882812 -15.144531 10.8125 -15.09375 C 10.738281 -15.050781 10.675781 -15.019531 10.625 -15 C 10.5625 -14.96875 10.453125 -14.90625 10.296875 -14.8125 C 10.160156 -14.738281 9.96875 -14.617188 9.71875 -14.453125 C 9.476562 -14.285156 9.144531 -14.054688 8.71875 -13.765625 C 8.863281 -13.921875 8.925781 -14.035156 8.90625 -14.109375 C 8.882812 -14.191406 8.832031 -14.25 8.75 -14.28125 C 8.65625 -14.3125 8.53125 -14.328125 8.375 -14.328125 C 8.238281 -14.316406 8.035156 -14.304688 7.765625 -14.296875 C 7.492188 -14.285156 7.175781 -14.269531 6.8125 -14.25 C 6.457031 -14.238281 6.066406 -14.226562 5.640625 -14.21875 C 5.222656 -14.207031 4.796875 -14.195312 4.359375 -14.1875 C 4.359375 -13.050781 4.359375 -12.03125 4.359375 -11.125 C 4.367188 -10.21875 4.375 -9.390625 4.375 -8.640625 C 5.101562 -8.640625 5.753906 -8.648438 6.328125 -8.671875 C 6.910156 -8.691406 7.410156 -8.710938 7.828125 -8.734375 C 8.304688 -8.765625 8.734375 -8.789062 9.109375 -8.8125 C 9.347656 -8.8125 9.503906 -8.789062 9.578125 -8.75 C 9.660156 -8.71875 9.691406 -8.675781 9.671875 -8.625 C 9.660156 -8.582031 9.617188 -8.535156 9.546875 -8.484375 C 9.484375 -8.429688 9.425781 -8.394531 9.375 -8.375 Z M 9.375 -8.375 "/></g></g></g><g fill="#000000" fill-opacity="1"><g transform="translate(162.787678, 227.709646)"><g><path d="M 9.375 -8.375 C 9.3125 -8.34375 9.21875 -8.285156 9.09375 -8.203125 C 8.976562 -8.128906 8.816406 -8.023438 8.609375 -7.890625 C 8.398438 -7.753906 8.125 -7.566406 7.78125 -7.328125 C 7.832031 -7.429688 7.828125 -7.507812 7.765625 -7.5625 C 7.710938 -7.625 7.632812 -7.664062 7.53125 -7.6875 C 7.414062 -7.71875 7.273438 -7.726562 7.109375 -7.71875 C 6.847656 -7.695312 6.476562 -7.671875 6 -7.640625 C 5.519531 -7.609375 4.976562 -7.582031 4.375 -7.5625 C 4.375 -6.425781 4.363281 -5.5 4.34375 -4.78125 C 4.332031 -4.070312 4.328125 -3.515625 4.328125 -3.109375 C 4.304688 -2.640625 4.289062 -2.296875 4.28125 -2.078125 C 4.269531 -1.941406 4.226562 -1.804688 4.15625 -1.671875 C 4.09375 -1.546875 4 -1.414062 3.875 -1.28125 C 3.75 -1.144531 3.578125 -1.023438 3.359375 -0.921875 L 8.203125 -0.921875 C 8.421875 -0.921875 8.648438 -0.929688 8.890625 -0.953125 C 9.085938 -0.984375 9.300781 -1.019531 9.53125 -1.0625 C 9.757812 -1.113281 9.976562 -1.191406 10.1875 -1.296875 C 9.832031 -0.960938 9.476562 -0.703125 9.125 -0.515625 C 8.78125 -0.335938 8.460938 -0.210938 8.171875 -0.140625 C 7.828125 -0.046875 7.5 0.00390625 7.1875 0.015625 C 6.488281 0.015625 5.832031 0.0195312 5.21875 0.03125 C 4.601562 0.0390625 4.046875 0.0546875 3.546875 0.078125 C 3.046875 0.0976562 2.617188 0.125 2.265625 0.15625 C 1.910156 0.1875 1.65625 0.222656 1.5 0.265625 C 1.71875 0.046875 1.890625 -0.164062 2.015625 -0.375 C 2.140625 -0.59375 2.234375 -0.832031 2.296875 -1.09375 C 2.367188 -1.363281 2.410156 -1.660156 2.421875 -1.984375 C 2.441406 -2.316406 2.445312 -2.710938 2.4375 -3.171875 L 2.4375 -7.546875 C 2.238281 -7.546875 2.039062 -7.546875 1.84375 -7.546875 C 1.644531 -7.554688 1.453125 -7.570312 1.265625 -7.59375 L 2.4375 -8.203125 C 2.4375 -8.585938 2.4375 -8.988281 2.4375 -9.40625 C 2.4375 -9.832031 2.4375 -10.285156 2.4375 -10.765625 C 2.4375 -11.253906 2.429688 -11.773438 2.421875 -12.328125 C 2.421875 -12.890625 2.421875 -13.5 2.421875 -14.15625 C 2.097656 -14.15625 1.796875 -14.160156 1.515625 -14.171875 C 1.234375 -14.179688 0.96875 -14.191406 0.71875 -14.203125 L 2.71875 -15.265625 C 4.0625 -15.265625 5.210938 -15.269531 6.171875 -15.28125 C 7.128906 -15.300781 7.921875 -15.320312 8.546875 -15.34375 C 9.273438 -15.375 9.878906 -15.40625 10.359375 -15.4375 C 10.609375 -15.4375 10.769531 -15.414062 10.84375 -15.375 C 10.925781 -15.332031 10.957031 -15.285156 10.9375 -15.234375 C 10.925781 -15.191406 10.882812 -15.144531 10.8125 -15.09375 C 10.738281 -15.050781 10.675781 -15.019531 10.625 -15 C 10.5625 -14.96875 10.453125 -14.90625 10.296875 -14.8125 C 10.160156 -14.738281 9.96875 -14.617188 9.71875 -14.453125 C 9.476562 -14.285156 9.144531 -14.054688 8.71875 -13.765625 C 8.863281 -13.921875 8.925781 -14.035156 8.90625 -14.109375 C 8.882812 -14.191406 8.832031 -14.25 8.75 -14.28125 C 8.65625 -14.3125 8.53125 -14.328125 8.375 -14.328125 C 8.238281 -14.316406 8.035156 -14.304688 7.765625 -14.296875 C 7.492188 -14.285156 7.175781 -14.269531 6.8125 -14.25 C 6.457031 -14.238281 6.066406 -14.226562 5.640625 -14.21875 C 5.222656 -14.207031 4.796875 -14.195312 4.359375 -14.1875 C 4.359375 -13.050781 4.359375 -12.03125 4.359375 -11.125 C 4.367188 -10.21875 4.375 -9.390625 4.375 -8.640625 C 5.101562 -8.640625 5.753906 -8.648438 6.328125 -8.671875 C 6.910156 -8.691406 7.410156 -8.710938 7.828125 -8.734375 C 8.304688 -8.765625 8.734375 -8.789062 9.109375 -8.8125 C 9.347656 -8.8125 9.503906 -8.789062 9.578125 -8.75 C 9.660156 -8.71875 9.691406 -8.675781 9.671875 -8.625 C 9.660156 -8.582031 9.617188 -8.535156 9.546875 -8.484375 C 9.484375 -8.429688 9.425781 -8.394531 9.375 -8.375 Z M 9.375 -8.375 "/></g></g></g><g fill="#000000" fill-opacity="1"><g transform="translate(175.604145, 227.709646)"><g><path d="M 11.390625 -11.453125 C 11.328125 -10.921875 11.179688 -10.453125 10.953125 -10.046875 C 10.734375 -9.648438 10.460938 -9.296875 10.140625 -8.984375 C 9.816406 -8.679688 9.472656 -8.421875 9.109375 -8.203125 C 8.742188 -7.992188 8.394531 -7.816406 8.0625 -7.671875 C 8.695312 -6.992188 9.265625 -6.390625 9.765625 -5.859375 C 10.265625 -5.335938 10.707031 -4.875 11.09375 -4.46875 C 11.488281 -4.0625 11.828125 -3.710938 12.109375 -3.421875 C 12.398438 -3.128906 12.648438 -2.878906 12.859375 -2.671875 C 13.347656 -2.203125 13.6875 -1.890625 13.875 -1.734375 C 14.070312 -1.578125 14.285156 -1.46875 14.515625 -1.40625 C 14.753906 -1.34375 14.984375 -1.3125 15.203125 -1.3125 C 15.390625 -1.3125 15.566406 -1.328125 15.734375 -1.359375 C 15.910156 -1.398438 16.050781 -1.441406 16.15625 -1.484375 C 15.8125 -1.253906 15.507812 -1.046875 15.25 -0.859375 C 14.988281 -0.679688 14.75 -0.523438 14.53125 -0.390625 C 14.3125 -0.253906 14.101562 -0.148438 13.90625 -0.078125 C 13.71875 -0.015625 13.519531 0.015625 13.3125 0.015625 C 13.164062 0.015625 13.023438 -0.00390625 12.890625 -0.046875 C 12.753906 -0.0859375 12.609375 -0.15625 12.453125 -0.25 C 12.296875 -0.34375 12.128906 -0.457031 11.953125 -0.59375 C 11.785156 -0.738281 11.597656 -0.910156 11.390625 -1.109375 C 11.253906 -1.242188 11.050781 -1.460938 10.78125 -1.765625 C 10.507812 -2.066406 10.207031 -2.40625 9.875 -2.78125 C 9.539062 -3.15625 9.191406 -3.546875 8.828125 -3.953125 C 8.460938 -4.359375 8.117188 -4.734375 7.796875 -5.078125 C 7.484375 -5.421875 7.203125 -5.71875 6.953125 -5.96875 C 6.703125 -6.21875 6.535156 -6.367188 6.453125 -6.421875 C 6.335938 -6.484375 6.222656 -6.539062 6.109375 -6.59375 C 6.003906 -6.632812 5.882812 -6.671875 5.75 -6.703125 C 5.625 -6.734375 5.5 -6.742188 5.375 -6.734375 L 6.921875 -7.796875 C 7.273438 -7.796875 7.613281 -7.878906 7.9375 -8.046875 C 8.269531 -8.210938 8.550781 -8.453125 8.78125 -8.765625 C 9.019531 -9.085938 9.207031 -9.472656 9.34375 -9.921875 C 9.476562 -10.378906 9.535156 -10.894531 9.515625 -11.46875 C 9.492188 -11.8125 9.414062 -12.125 9.28125 -12.40625 C 9.144531 -12.6875 8.96875 -12.9375 8.75 -13.15625 C 8.53125 -13.375 8.28125 -13.566406 8 -13.734375 C 7.726562 -13.898438 7.445312 -14.035156 7.15625 -14.140625 C 6.863281 -14.253906 6.570312 -14.335938 6.28125 -14.390625 C 5.988281 -14.441406 5.722656 -14.46875 5.484375 -14.46875 C 5.316406 -14.46875 5.140625 -14.460938 4.953125 -14.453125 C 4.765625 -14.453125 4.570312 -14.453125 4.375 -14.453125 C 4.351562 -13.117188 4.328125 -11.925781 4.296875 -10.875 C 4.273438 -9.832031 4.253906 -8.90625 4.234375 -8.09375 C 4.210938 -7.289062 4.191406 -6.59375 4.171875 -6 C 4.160156 -5.414062 4.144531 -4.914062 4.125 -4.5 C 4.082031 -3.53125 4.039062 -2.878906 4 -2.546875 C 3.976562 -2.398438 3.941406 -2.253906 3.890625 -2.109375 C 3.847656 -1.972656 3.789062 -1.832031 3.71875 -1.6875 C 3.644531 -1.539062 3.550781 -1.394531 3.4375 -1.25 C 3.738281 -1.21875 4.007812 -1.195312 4.25 -1.1875 C 4.5 -1.1875 4.726562 -1.1875 4.9375 -1.1875 C 5.425781 -1.1875 5.785156 -1.195312 6.015625 -1.21875 C 6.253906 -1.25 6.390625 -1.273438 6.421875 -1.296875 C 6.054688 -1.109375 5.707031 -0.9375 5.375 -0.78125 C 5.050781 -0.625 4.738281 -0.484375 4.4375 -0.359375 C 4.132812 -0.242188 3.847656 -0.148438 3.578125 -0.078125 C 3.304688 -0.015625 3.039062 0.015625 2.78125 0.015625 L 0.921875 0.015625 L 1.859375 -0.609375 C 1.910156 -0.796875 1.957031 -1.015625 2 -1.265625 C 2.050781 -1.523438 2.09375 -1.800781 2.125 -2.09375 C 2.15625 -2.394531 2.179688 -2.703125 2.203125 -3.015625 C 2.234375 -3.328125 2.257812 -3.640625 2.28125 -3.953125 C 2.320312 -4.648438 2.351562 -5.394531 2.375 -6.1875 C 2.394531 -7.28125 2.410156 -8.332031 2.421875 -9.34375 C 2.429688 -9.78125 2.4375 -10.226562 2.4375 -10.6875 C 2.445312 -11.144531 2.453125 -11.59375 2.453125 -12.03125 C 2.460938 -12.46875 2.46875 -12.882812 2.46875 -13.28125 C 2.476562 -13.675781 2.484375 -14.023438 2.484375 -14.328125 L 0.5625 -14.1875 L 2.640625 -15.4375 C 2.765625 -15.414062 2.898438 -15.398438 3.046875 -15.390625 C 3.191406 -15.390625 3.34375 -15.390625 3.5 -15.390625 C 3.800781 -15.390625 4.101562 -15.398438 4.40625 -15.421875 C 4.707031 -15.453125 5.003906 -15.484375 5.296875 -15.515625 C 5.597656 -15.546875 5.890625 -15.570312 6.171875 -15.59375 C 6.453125 -15.625 6.738281 -15.640625 7.03125 -15.640625 C 7.601562 -15.640625 8.160156 -15.546875 8.703125 -15.359375 C 9.253906 -15.171875 9.738281 -14.894531 10.15625 -14.53125 C 10.570312 -14.164062 10.894531 -13.722656 11.125 -13.203125 C 11.363281 -12.679688 11.453125 -12.097656 11.390625 -11.453125 Z M 16.1875 -1.5 C 16.164062 -1.5 16.15625 -1.5 16.15625 -1.5 L 16.15625 -1.484375 L 16.15625 -1.5 C 16.164062 -1.5 16.175781 -1.5 16.1875 -1.5 Z M 16.1875 -1.5 "/></g></g></g><g fill="#000000" fill-opacity="1"><g transform="translate(191.97537, 227.709646)"><g/></g></g><g fill="#000000" fill-opacity="1"><g transform="translate(199.059388, 227.709646)"><g><path d="M 14.078125 -14.671875 C 13.953125 -14.503906 13.796875 -14.34375 13.609375 -14.1875 C 13.453125 -14.050781 13.257812 -13.90625 13.03125 -13.75 C 12.800781 -13.601562 12.53125 -13.472656 12.21875 -13.359375 C 12.320312 -13.484375 12.332031 -13.617188 12.25 -13.765625 C 12.164062 -13.910156 11.984375 -14.039062 11.703125 -14.15625 C 11.429688 -14.28125 11.054688 -14.378906 10.578125 -14.453125 C 10.109375 -14.535156 9.53125 -14.578125 8.84375 -14.578125 C 8.445312 -14.578125 8.019531 -14.535156 7.5625 -14.453125 C 7.101562 -14.367188 6.648438 -14.226562 6.203125 -14.03125 C 5.753906 -13.832031 5.320312 -13.566406 4.90625 -13.234375 C 4.488281 -12.910156 4.117188 -12.5 3.796875 -12 C 3.472656 -11.507812 3.21875 -10.921875 3.03125 -10.234375 C 2.84375 -9.554688 2.75 -8.773438 2.75 -7.890625 C 2.75 -6.992188 2.859375 -6.207031 3.078125 -5.53125 C 3.296875 -4.863281 3.582031 -4.285156 3.9375 -3.796875 C 4.300781 -3.304688 4.710938 -2.898438 5.171875 -2.578125 C 5.640625 -2.253906 6.113281 -1.992188 6.59375 -1.796875 C 7.082031 -1.597656 7.554688 -1.457031 8.015625 -1.375 C 8.484375 -1.300781 8.90625 -1.265625 9.28125 -1.265625 C 9.570312 -1.265625 9.878906 -1.28125 10.203125 -1.3125 C 10.484375 -1.332031 10.800781 -1.367188 11.15625 -1.421875 C 11.507812 -1.472656 11.878906 -1.546875 12.265625 -1.640625 C 12.359375 -1.742188 12.429688 -1.851562 12.484375 -1.96875 C 12.546875 -2.09375 12.597656 -2.207031 12.640625 -2.3125 C 12.671875 -2.414062 12.695312 -2.523438 12.71875 -2.640625 C 12.757812 -3.378906 12.773438 -4.109375 12.765625 -4.828125 C 12.765625 -5.546875 12.765625 -6.265625 12.765625 -6.984375 C 12.566406 -7.003906 12.351562 -7.023438 12.125 -7.046875 C 11.894531 -7.078125 11.671875 -7.09375 11.453125 -7.09375 C 11.273438 -7.09375 11.113281 -7.082031 10.96875 -7.0625 C 10.820312 -7.050781 10.691406 -7.019531 10.578125 -6.96875 C 10.984375 -7.21875 11.328125 -7.410156 11.609375 -7.546875 C 11.898438 -7.691406 12.132812 -7.800781 12.3125 -7.875 C 12.53125 -7.957031 12.707031 -8.015625 12.84375 -8.046875 C 13 -8.066406 13.191406 -8.082031 13.421875 -8.09375 C 13.660156 -8.113281 13.898438 -8.128906 14.140625 -8.140625 C 14.390625 -8.148438 14.632812 -8.160156 14.875 -8.171875 C 15.113281 -8.191406 15.320312 -8.222656 15.5 -8.265625 L 14.75 -7.734375 C 14.738281 -6.992188 14.722656 -6.375 14.703125 -5.875 C 14.679688 -5.382812 14.664062 -4.992188 14.65625 -4.703125 C 14.632812 -4.347656 14.613281 -4.066406 14.59375 -3.859375 C 14.59375 -3.628906 14.550781 -3.40625 14.46875 -3.1875 C 14.394531 -2.976562 14.28125 -2.769531 14.125 -2.5625 C 13.96875 -2.363281 13.757812 -2.164062 13.5 -1.96875 C 13.238281 -1.769531 12.921875 -1.566406 12.546875 -1.359375 C 11.972656 -0.972656 11.441406 -0.675781 10.953125 -0.46875 C 10.460938 -0.257812 10.035156 -0.109375 9.671875 -0.015625 C 9.242188 0.0976562 8.851562 0.164062 8.5 0.1875 C 7.445312 0.1875 6.453125 0.0351562 5.515625 -0.265625 C 4.585938 -0.578125 3.773438 -1.023438 3.078125 -1.609375 C 2.378906 -2.203125 1.828125 -2.925781 1.421875 -3.78125 C 1.015625 -4.632812 0.8125 -5.601562 0.8125 -6.6875 C 0.8125 -7.363281 0.875 -7.992188 1 -8.578125 C 1.132812 -9.160156 1.304688 -9.691406 1.515625 -10.171875 C 1.722656 -10.648438 1.957031 -11.082031 2.21875 -11.46875 C 2.476562 -11.863281 2.742188 -12.207031 3.015625 -12.5 C 3.296875 -12.800781 3.566406 -13.050781 3.828125 -13.25 C 4.085938 -13.445312 4.3125 -13.597656 4.5 -13.703125 C 4.6875 -13.804688 4.921875 -13.925781 5.203125 -14.0625 C 5.492188 -14.195312 5.8125 -14.332031 6.15625 -14.46875 C 6.507812 -14.613281 6.875 -14.753906 7.25 -14.890625 C 7.632812 -15.023438 8.023438 -15.144531 8.421875 -15.25 C 8.828125 -15.351562 9.21875 -15.4375 9.59375 -15.5 C 9.976562 -15.570312 10.34375 -15.609375 10.6875 -15.609375 C 11.445312 -15.609375 12.0625 -15.570312 12.53125 -15.5 C 13 -15.425781 13.351562 -15.335938 13.59375 -15.234375 C 13.84375 -15.128906 14 -15.023438 14.0625 -14.921875 C 14.125 -14.816406 14.128906 -14.734375 14.078125 -14.671875 Z M 14.078125 -14.671875 "/></g></g></g><g fill="#000000" fill-opacity="1"><g transform="translate(216.572832, 227.709646)"><g><path d="M 6.078125 -15.40625 C 5.785156 -15.207031 5.46875 -15 5.125 -14.78125 C 4.78125 -14.5625 4.445312 -14.382812 4.125 -14.25 C 4.101562 -13.34375 4.082031 -12.515625 4.0625 -11.765625 C 4.039062 -11.015625 4.019531 -10.335938 4 -9.734375 C 3.988281 -9.140625 3.976562 -8.609375 3.96875 -8.140625 C 3.957031 -7.679688 3.953125 -7.273438 3.953125 -6.921875 C 3.929688 -6.109375 3.925781 -5.488281 3.9375 -5.0625 C 3.925781 -4.5625 4 -4.070312 4.15625 -3.59375 C 4.3125 -3.113281 4.5625 -2.6875 4.90625 -2.3125 C 5.257812 -1.9375 5.722656 -1.632812 6.296875 -1.40625 C 6.867188 -1.175781 7.5625 -1.0625 8.375 -1.0625 C 8.8125 -1.082031 9.269531 -1.148438 9.75 -1.265625 C 10.15625 -1.359375 10.601562 -1.503906 11.09375 -1.703125 C 11.582031 -1.898438 12.0625 -2.191406 12.53125 -2.578125 L 12.53125 -14.125 C 12.425781 -14.132812 12.320312 -14.140625 12.21875 -14.140625 C 12.113281 -14.140625 12.007812 -14.140625 11.90625 -14.140625 C 11.707031 -14.140625 11.507812 -14.132812 11.3125 -14.125 C 11.125 -14.113281 10.945312 -14.097656 10.78125 -14.078125 C 11.113281 -14.378906 11.410156 -14.609375 11.671875 -14.765625 C 11.929688 -14.921875 12.15625 -15.035156 12.34375 -15.109375 C 12.550781 -15.191406 12.734375 -15.242188 12.890625 -15.265625 C 13.023438 -15.265625 13.195312 -15.265625 13.40625 -15.265625 C 13.613281 -15.273438 13.832031 -15.28125 14.0625 -15.28125 C 14.289062 -15.289062 14.523438 -15.300781 14.765625 -15.3125 C 15.003906 -15.320312 15.222656 -15.332031 15.421875 -15.34375 C 15.628906 -15.351562 15.804688 -15.363281 15.953125 -15.375 C 16.097656 -15.382812 16.195312 -15.394531 16.25 -15.40625 C 16 -15.226562 15.71875 -15.039062 15.40625 -14.84375 C 15.09375 -14.65625 14.796875 -14.492188 14.515625 -14.359375 L 14.515625 -3.359375 C 14.503906 -3.015625 14.484375 -2.691406 14.453125 -2.390625 C 14.421875 -2.128906 14.375 -1.875 14.3125 -1.625 C 14.25 -1.382812 14.15625 -1.21875 14.03125 -1.125 C 14.4375 -1.070312 14.789062 -1.035156 15.09375 -1.015625 C 15.394531 -1.003906 15.660156 -1 15.890625 -1 C 16.296875 -1 16.585938 -1.015625 16.765625 -1.046875 C 16.941406 -1.078125 17.039062 -1.097656 17.0625 -1.109375 C 16.726562 -0.921875 16.421875 -0.753906 16.140625 -0.609375 C 15.867188 -0.472656 15.609375 -0.359375 15.359375 -0.265625 C 15.117188 -0.179688 14.878906 -0.113281 14.640625 -0.0625 C 14.410156 -0.0195312 14.179688 0 13.953125 0 L 11.875 0 C 12.03125 -0.0507812 12.148438 -0.171875 12.234375 -0.359375 C 12.328125 -0.554688 12.398438 -0.757812 12.453125 -0.96875 C 12.492188 -1.207031 12.519531 -1.46875 12.53125 -1.75 L 12.53125 -2.25 C 11.78125 -1.632812 11.0625 -1.164062 10.375 -0.84375 C 9.6875 -0.519531 9.078125 -0.28125 8.546875 -0.125 C 7.929688 0.0507812 7.347656 0.148438 6.796875 0.171875 C 5.898438 0.171875 5.144531 0.0507812 4.53125 -0.1875 C 3.925781 -0.425781 3.441406 -0.757812 3.078125 -1.1875 C 2.710938 -1.613281 2.453125 -2.125 2.296875 -2.71875 C 2.148438 -3.320312 2.085938 -3.984375 2.109375 -4.703125 C 2.097656 -5.285156 2.097656 -6.023438 2.109375 -6.921875 C 2.117188 -7.691406 2.128906 -8.671875 2.140625 -9.859375 C 2.160156 -11.046875 2.191406 -12.472656 2.234375 -14.140625 L 1.75 -14.140625 C 1.550781 -14.140625 1.351562 -14.132812 1.15625 -14.125 C 0.957031 -14.113281 0.773438 -14.097656 0.609375 -14.078125 C 0.941406 -14.378906 1.238281 -14.609375 1.5 -14.765625 C 1.757812 -14.921875 1.984375 -15.035156 2.171875 -15.109375 C 2.378906 -15.191406 2.566406 -15.242188 2.734375 -15.265625 C 2.867188 -15.265625 3.035156 -15.265625 3.234375 -15.265625 C 3.441406 -15.273438 3.660156 -15.28125 3.890625 -15.28125 C 4.128906 -15.289062 4.367188 -15.300781 4.609375 -15.3125 C 4.847656 -15.320312 5.066406 -15.332031 5.265625 -15.34375 C 5.472656 -15.351562 5.644531 -15.363281 5.78125 -15.375 C 5.925781 -15.382812 6.023438 -15.394531 6.078125 -15.40625 Z M 17.0625 -1.109375 L 17.0625 -1.125 L 17.078125 -1.125 C 17.085938 -1.125 17.09375 -1.125 17.09375 -1.125 Z M 17.0625 -1.109375 "/></g></g></g><g fill="#000000" fill-opacity="1"><g transform="translate(235.175115, 227.709646)"><g><path d="M 6.453125 -1.375 C 6.066406 -1.125 5.75 -0.90625 5.5 -0.71875 C 5.25 -0.53125 5.019531 -0.375 4.8125 -0.25 C 4.613281 -0.132812 4.421875 -0.0507812 4.234375 0 C 4.046875 0.0507812 3.820312 0.078125 3.5625 0.078125 C 3.21875 0.078125 2.925781 0.0625 2.6875 0.03125 C 2.445312 0.0078125 2.207031 0 1.96875 0 C 1.84375 0 1.71875 0.00390625 1.59375 0.015625 C 1.46875 0.0234375 1.332031 0.046875 1.1875 0.078125 C 1.382812 -0.0859375 1.5625 -0.269531 1.71875 -0.46875 C 1.882812 -0.664062 2.023438 -0.910156 2.140625 -1.203125 C 2.265625 -1.492188 2.359375 -1.84375 2.421875 -2.25 C 2.484375 -2.664062 2.515625 -3.160156 2.515625 -3.734375 L 2.515625 -14.515625 C 2.296875 -14.492188 2.03125 -14.460938 1.71875 -14.421875 C 1.40625 -14.390625 1.050781 -14.347656 0.65625 -14.296875 C 1.039062 -14.609375 1.382812 -14.84375 1.6875 -15 C 2 -15.164062 2.265625 -15.289062 2.484375 -15.375 C 2.742188 -15.457031 2.972656 -15.503906 3.171875 -15.515625 C 3.421875 -15.515625 3.695312 -15.519531 4 -15.53125 C 4.300781 -15.539062 4.59375 -15.554688 4.875 -15.578125 C 5.15625 -15.609375 5.410156 -15.644531 5.640625 -15.6875 C 5.878906 -15.726562 6.054688 -15.769531 6.171875 -15.8125 C 5.835938 -15.59375 5.535156 -15.40625 5.265625 -15.25 C 4.992188 -15.09375 4.738281 -14.96875 4.5 -14.875 C 4.46875 -13.582031 4.4375 -12.425781 4.40625 -11.40625 C 4.382812 -10.394531 4.363281 -9.492188 4.34375 -8.703125 C 4.332031 -7.921875 4.320312 -7.242188 4.3125 -6.671875 C 4.300781 -6.097656 4.289062 -5.609375 4.28125 -5.203125 C 4.257812 -4.253906 4.253906 -3.601562 4.265625 -3.25 C 4.253906 -2.988281 4.21875 -2.726562 4.15625 -2.46875 C 4.09375 -2.25 4.003906 -2.007812 3.890625 -1.75 C 3.773438 -1.5 3.613281 -1.269531 3.40625 -1.0625 C 3.539062 -1.050781 3.671875 -1.046875 3.796875 -1.046875 C 3.921875 -1.046875 4.046875 -1.046875 4.171875 -1.046875 C 4.535156 -1.046875 4.859375 -1.0625 5.140625 -1.09375 C 5.421875 -1.125 5.65625 -1.160156 5.84375 -1.203125 C 6.070312 -1.253906 6.273438 -1.3125 6.453125 -1.375 Z M 6.453125 -1.375 "/></g></g></g><g fill="#000000" fill-opacity="1"><g transform="translate(243.636208, 227.709646)"><g><path d="M 15.578125 -8.578125 C 15.578125 -7.691406 15.429688 -6.863281 15.140625 -6.09375 C 14.847656 -5.332031 14.445312 -4.632812 13.9375 -4 C 13.4375 -3.363281 12.851562 -2.796875 12.1875 -2.296875 C 11.519531 -1.804688 10.8125 -1.390625 10.0625 -1.046875 C 9.3125 -0.703125 8.539062 -0.441406 7.75 -0.265625 C 6.96875 -0.0859375 6.207031 0 5.46875 0 C 5.394531 0.0078125 5.265625 0.015625 5.078125 0.015625 C 4.890625 0.015625 4.671875 0.015625 4.421875 0.015625 C 4.171875 0.015625 3.898438 0.015625 3.609375 0.015625 C 3.316406 0.015625 3.03125 0.015625 2.75 0.015625 C 2.476562 0.015625 2.21875 0.015625 1.96875 0.015625 C 1.726562 0.015625 1.53125 0.0078125 1.375 0 C 1.5 0 1.601562 -0.03125 1.6875 -0.09375 C 1.78125 -0.15625 1.859375 -0.238281 1.921875 -0.34375 C 1.992188 -0.457031 2.050781 -0.582031 2.09375 -0.71875 C 2.144531 -0.851562 2.191406 -0.992188 2.234375 -1.140625 C 2.304688 -1.484375 2.347656 -1.867188 2.359375 -2.296875 C 2.359375 -2.816406 2.363281 -3.597656 2.375 -4.640625 C 2.382812 -5.085938 2.390625 -5.609375 2.390625 -6.203125 C 2.398438 -6.804688 2.410156 -7.5 2.421875 -8.28125 C 2.441406 -9.0625 2.460938 -9.9375 2.484375 -10.90625 C 2.503906 -11.882812 2.523438 -12.96875 2.546875 -14.15625 C 2.234375 -14.125 1.921875 -14.097656 1.609375 -14.078125 C 1.296875 -14.066406 0.96875 -14.066406 0.625 -14.078125 L 2.625 -15.390625 C 2.945312 -15.347656 3.28125 -15.316406 3.625 -15.296875 C 3.976562 -15.285156 4.328125 -15.28125 4.671875 -15.28125 C 5.296875 -15.28125 5.875 -15.304688 6.40625 -15.359375 C 6.9375 -15.410156 7.460938 -15.4375 7.984375 -15.4375 C 8.453125 -15.4375 8.960938 -15.394531 9.515625 -15.3125 C 10.078125 -15.238281 10.640625 -15.101562 11.203125 -14.90625 C 11.765625 -14.71875 12.304688 -14.457031 12.828125 -14.125 C 13.359375 -13.800781 13.828125 -13.382812 14.234375 -12.875 C 14.640625 -12.363281 14.960938 -11.753906 15.203125 -11.046875 C 15.453125 -10.335938 15.578125 -9.515625 15.578125 -8.578125 Z M 4.15625 -2.953125 C 4.132812 -2.722656 4.085938 -2.507812 4.015625 -2.3125 C 3.953125 -2.125 3.863281 -1.929688 3.75 -1.734375 C 3.644531 -1.535156 3.5 -1.367188 3.3125 -1.234375 C 4.300781 -1.179688 5.113281 -1.144531 5.75 -1.125 C 6.394531 -1.113281 6.910156 -1.109375 7.296875 -1.109375 C 8.285156 -1.109375 9.171875 -1.285156 9.953125 -1.640625 C 10.734375 -1.992188 11.394531 -2.46875 11.9375 -3.0625 C 12.476562 -3.664062 12.894531 -4.363281 13.1875 -5.15625 C 13.476562 -5.957031 13.625 -6.804688 13.625 -7.703125 C 13.625 -8.578125 13.503906 -9.351562 13.265625 -10.03125 C 13.035156 -10.707031 12.726562 -11.300781 12.34375 -11.8125 C 11.957031 -12.320312 11.519531 -12.75 11.03125 -13.09375 C 10.539062 -13.445312 10.035156 -13.726562 9.515625 -13.9375 C 9.003906 -14.15625 8.492188 -14.3125 7.984375 -14.40625 C 7.484375 -14.507812 7.03125 -14.5625 6.625 -14.5625 C 6.207031 -14.5625 5.816406 -14.546875 5.453125 -14.515625 C 5.085938 -14.484375 4.734375 -14.445312 4.390625 -14.40625 C 4.367188 -13.113281 4.347656 -11.957031 4.328125 -10.9375 C 4.316406 -9.925781 4.300781 -9.03125 4.28125 -8.25 C 4.269531 -7.476562 4.257812 -6.804688 4.25 -6.234375 C 4.238281 -5.671875 4.226562 -5.191406 4.21875 -4.796875 C 4.1875 -3.878906 4.164062 -3.265625 4.15625 -2.953125 Z M 4.15625 -2.953125 "/></g></g></g><g fill="#000000" fill-opacity="1"><g transform="translate(261.672719, 227.709646)"><g><path d="M 9.375 -8.375 C 9.3125 -8.34375 9.21875 -8.285156 9.09375 -8.203125 C 8.976562 -8.128906 8.816406 -8.023438 8.609375 -7.890625 C 8.398438 -7.753906 8.125 -7.566406 7.78125 -7.328125 C 7.832031 -7.429688 7.828125 -7.507812 7.765625 -7.5625 C 7.710938 -7.625 7.632812 -7.664062 7.53125 -7.6875 C 7.414062 -7.71875 7.273438 -7.726562 7.109375 -7.71875 C 6.847656 -7.695312 6.476562 -7.671875 6 -7.640625 C 5.519531 -7.609375 4.976562 -7.582031 4.375 -7.5625 C 4.375 -6.425781 4.363281 -5.5 4.34375 -4.78125 C 4.332031 -4.070312 4.328125 -3.515625 4.328125 -3.109375 C 4.304688 -2.640625 4.289062 -2.296875 4.28125 -2.078125 C 4.269531 -1.941406 4.226562 -1.804688 4.15625 -1.671875 C 4.09375 -1.546875 4 -1.414062 3.875 -1.28125 C 3.75 -1.144531 3.578125 -1.023438 3.359375 -0.921875 L 8.203125 -0.921875 C 8.421875 -0.921875 8.648438 -0.929688 8.890625 -0.953125 C 9.085938 -0.984375 9.300781 -1.019531 9.53125 -1.0625 C 9.757812 -1.113281 9.976562 -1.191406 10.1875 -1.296875 C 9.832031 -0.960938 9.476562 -0.703125 9.125 -0.515625 C 8.78125 -0.335938 8.460938 -0.210938 8.171875 -0.140625 C 7.828125 -0.046875 7.5 0.00390625 7.1875 0.015625 C 6.488281 0.015625 5.832031 0.0195312 5.21875 0.03125 C 4.601562 0.0390625 4.046875 0.0546875 3.546875 0.078125 C 3.046875 0.0976562 2.617188 0.125 2.265625 0.15625 C 1.910156 0.1875 1.65625 0.222656 1.5 0.265625 C 1.71875 0.046875 1.890625 -0.164062 2.015625 -0.375 C 2.140625 -0.59375 2.234375 -0.832031 2.296875 -1.09375 C 2.367188 -1.363281 2.410156 -1.660156 2.421875 -1.984375 C 2.441406 -2.316406 2.445312 -2.710938 2.4375 -3.171875 L 2.4375 -7.546875 C 2.238281 -7.546875 2.039062 -7.546875 1.84375 -7.546875 C 1.644531 -7.554688 1.453125 -7.570312 1.265625 -7.59375 L 2.4375 -8.203125 C 2.4375 -8.585938 2.4375 -8.988281 2.4375 -9.40625 C 2.4375 -9.832031 2.4375 -10.285156 2.4375 -10.765625 C 2.4375 -11.253906 2.429688 -11.773438 2.421875 -12.328125 C 2.421875 -12.890625 2.421875 -13.5 2.421875 -14.15625 C 2.097656 -14.15625 1.796875 -14.160156 1.515625 -14.171875 C 1.234375 -14.179688 0.96875 -14.191406 0.71875 -14.203125 L 2.71875 -15.265625 C 4.0625 -15.265625 5.210938 -15.269531 6.171875 -15.28125 C 7.128906 -15.300781 7.921875 -15.320312 8.546875 -15.34375 C 9.273438 -15.375 9.878906 -15.40625 10.359375 -15.4375 C 10.609375 -15.4375 10.769531 -15.414062 10.84375 -15.375 C 10.925781 -15.332031 10.957031 -15.285156 10.9375 -15.234375 C 10.925781 -15.191406 10.882812 -15.144531 10.8125 -15.09375 C 10.738281 -15.050781 10.675781 -15.019531 10.625 -15 C 10.5625 -14.96875 10.453125 -14.90625 10.296875 -14.8125 C 10.160156 -14.738281 9.96875 -14.617188 9.71875 -14.453125 C 9.476562 -14.285156 9.144531 -14.054688 8.71875 -13.765625 C 8.863281 -13.921875 8.925781 -14.035156 8.90625 -14.109375 C 8.882812 -14.191406 8.832031 -14.25 8.75 -14.28125 C 8.65625 -14.3125 8.53125 -14.328125 8.375 -14.328125 C 8.238281 -14.316406 8.035156 -14.304688 7.765625 -14.296875 C 7.492188 -14.285156 7.175781 -14.269531 6.8125 -14.25 C 6.457031 -14.238281 6.066406 -14.226562 5.640625 -14.21875 C 5.222656 -14.207031 4.796875 -14.195312 4.359375 -14.1875 C 4.359375 -13.050781 4.359375 -12.03125 4.359375 -11.125 C 4.367188 -10.21875 4.375 -9.390625 4.375 -8.640625 C 5.101562 -8.640625 5.753906 -8.648438 6.328125 -8.671875 C 6.910156 -8.691406 7.410156 -8.710938 7.828125 -8.734375 C 8.304688 -8.765625 8.734375 -8.789062 9.109375 -8.8125 C 9.347656 -8.8125 9.503906 -8.789062 9.578125 -8.75 C 9.660156 -8.71875 9.691406 -8.675781 9.671875 -8.625 C 9.660156 -8.582031 9.617188 -8.535156 9.546875 -8.484375 C 9.484375 -8.429688 9.425781 -8.394531 9.375 -8.375 Z M 9.375 -8.375 "/></g></g></g></svg>